Coordinates
version=1
nRows=9
nColumns=36
inDegrees=yes

Units are S.I. units (second, meters, Newtons, ...)
If the header above contains a line with 'inDegrees', this indicates whether rotational values are in degrees (yes) or radians (no).

endheader
time	pelvis_tilt	pelvis_list	pelvis_rotation	pelvis_tx	pelvis_ty	pelvis_tz	hip_flexion_r	hip_adduction_r	hip_rotation_r	knee_angle_r	knee_angle_r_beta	ankle_angle_r	subtalar_angle_r	mtp_angle_r	hip_flexion_l	hip_adduction_l	hip_rotation_l	knee_angle_l	knee_angle_l_beta	ankle_angle_l	subtalar_angle_l	mtp_angle_l	lumbar_extension	lumbar_bending	lumbar_rotation	arm_flex_r	arm_add_r	arm_rot_r	elbow_flex_r	pro_sup_r	arm_flex_l	arm_add_l	arm_rot_l	elbow_flex_l	pro_sup_l
      1.15000000	      2.38655762	     -0.27414470	     -8.19645264	      0.72871908	      1.34392622	     -0.05635643	     -4.85871765	     -2.94145418	      7.52212954	      0.69625780	      0.01215199	      9.14274281	     -5.68656069	     -7.49999987	     -6.72646744	      0.54042973	     -2.88811102	      1.55355738	      0.02711469	      7.14672960	     -6.54799608	     -7.49999987	    -10.59789564	      0.74331961	     -2.89667338	     10.64934298	     -7.10206575	     22.85497836	     21.33135409	     98.90261184	      2.92181258	     -8.87022544	      5.52046825	     20.61373873	    102.80443040
      1.16666670	      2.47351384	     -0.28547153	     -8.26213636	      0.72874397	      1.34410519	     -0.05596964	     -4.90954107	     -2.94887956	      7.62959235	      0.78781596	      0.01374998	      9.10244320	     -5.86971951	     -7.49999987	     -6.72632571	      0.56841328	     -2.88955126	      1.82079935	      0.03177894	      7.26686495	     -6.64376370	     -7.49999987	    -10.71970599	      0.74215006	     -2.94685996	     10.58218067	     -7.19843387	     23.03310229	     21.53950508	     98.97603796	      2.81843271	     -8.88200621	      5.54269973	     20.95203270	    102.86670088
      1.18333330	      2.55413706	     -0.31210861	     -8.32142323	      0.72871682	      1.34448970	     -0.05611162	     -4.93678258	     -2.93000129	      7.59176844	      0.95165411	      0.01660950	      9.14066074	     -5.92254508	     -7.49999987	     -6.64868117	      0.56654971	     -2.89172795	      2.19086776	      0.03823786	      7.43884167	     -6.68725364	     -7.49999987	    -10.87087986	      0.74103826	     -2.99903876	     10.46385680	     -7.29995177	     23.06332043	     21.57247470	     99.08733249	      2.71572280	     -8.87410388	      5.36813896	     21.24986061	    102.91494552
      1.20000000	      2.62107205	     -0.38403811	     -8.30710411	      0.72247294	      1.34454353	     -0.05284764	     -4.85598517	     -2.83290822	      7.56573736	      1.23115092	      0.02148764	      9.23912278	     -6.09150188	     -7.49999987	     -6.41663769	      0.46705530	     -2.90029299	      2.75298545	      0.04804866	      7.56402471	     -6.82025969	     -7.49999987	    -11.14894850	      0.74859808	     -3.00361071	     10.32974735	     -7.35941131	     23.08746261	     21.51853357	     99.10349175	      2.83606527	     -9.02122579	      5.32031446	     21.35358192	    102.90272983
      1.21666670	      2.64486079	     -0.44052019	     -8.29487814	      0.72234963	      1.34896544	     -0.05312081	     -4.67798383	     -2.75337682	      7.55220646	      1.58383220	      0.02764309	      9.23771251	     -6.27894130	     -7.49999987	     -6.07739465	      0.38584241	     -2.86167580	      3.39928523	      0.05932872	      7.78665101	     -6.99123291	     -7.49999987	    -11.45791003	      0.75982639	     -3.03364244	     10.16158857	     -7.53851660	     23.11052513	     21.42317524	     99.13413456	      2.95211543	     -9.08239976	      5.28003601	     21.52806239	    102.90214814
      1.23333330	      2.35875287	     -0.48293836	     -8.32766185	      0.72264660	      1.34857053	     -0.05288908	     -4.11910434	     -2.63535177	      7.77130301	      2.03132133	      0.03545325	      9.15383312	     -6.81442613	     -7.49999987	     -5.41587715	      0.28081032	     -2.85165847	      4.06969787	      0.07102963	      8.02566099	     -7.22735582	     -7.49999987	    -11.37599194	      0.80097950	     -3.18728293	     10.09857438	     -7.94800788	     25.48321598	     21.26990130	     97.55882185	      2.61310695	     -9.42607691	      6.21439352	     22.20718270	    100.98133858
      1.25000000	      2.14561660	     -0.55392849	     -8.30888335	      0.72266352	      1.34868385	     -0.05317048	     -3.58445776	     -2.49187800	      7.77026540	      2.61659652	      0.04566822	      9.26623166	     -7.01425375	     -7.49999987	     -4.75635631	      0.14872780	     -2.75250739	      4.85716216	      0.08477347	      8.36162306	     -7.50824833	     -7.49999987	    -11.47771771	      0.88275177	     -3.26274926	      9.69534666	     -7.86117262	     22.90468884	     21.12223621	     99.98678739	      2.19257518	     -9.09805441	      2.49227975	     22.87751502	    104.37233941
      1.26666670	      1.79178319	     -0.55874288	     -8.28705010	      0.71659843	      1.34831609	     -0.05002457	     -2.79796207	     -2.38532330	      7.68289407	      3.25093805	      0.05673957	      9.36189323	     -7.24416234	     -7.49999987	     -3.85065501	      0.02945869	     -2.74630333	      5.73405326	      0.10007811	      8.65620476	     -7.64063041	     -7.49999987	    -11.50429204	      0.89125488	     -3.27851404	      9.46911211	     -8.06724548	     22.89288400	     21.00152981	    100.00082434	      2.09454661	     -9.36876819	      2.29200766	     23.06921065	    104.29773329
      1.28333330	      1.47097371	     -0.57571299	     -8.27909494	      0.72377153	      1.35107450	     -0.05341863	     -2.08449891	     -2.30301873	      7.68984092	      3.88044997	      0.06772663	      9.46808929	     -7.37185468	     -7.49999987	     -3.08808610	     -0.05360773	     -2.57466285	      6.45349979	      0.11263482	      9.05676290	     -7.74769768	     -7.49999987	    -11.54223673	      0.93546526	     -3.17130076	      9.01203658	     -8.37060590	     22.90328752	     20.72073173	    100.06014006	      1.84290360	     -9.38227724	      1.95295424	     23.34537404	    104.22198826
